<svg xmlns="http://www.w3.org/2000/svg" viewBox="0 0 433.02 200.5"><defs><style>.cls-1{fill:#f5faf2;stroke:#524a71;stroke-miterlimit:10;stroke-width:3px;}</style></defs><title>Zasób 1</title><g id="Warstwa_2" data-name="Warstwa 2"><g id="Warstwa_1-2" data-name="Warstwa 1"><rect class="cls-1" x="1.5" y="1.5" width="430.02" height="197.5"/><path class="cls-1" d="M217.3,171.88a529,529,0,0,1,2.49-88.21c4.81-42.25,11.77-55.82,21.42-58.11a16,16,0,0,1,8.26.55c13.73,3.75,21.19,21,27.26,57.05A443.28,443.28,0,0,1,283,170.88"/><path class="cls-1" d="M166.69,55.49v55"/><path class="cls-1" d="M288.68,95.92c-3.61-27.42-2.42-35.29,0-35.95,3.54-1,7.88,14,16.77,14.38,9.49.43,14.46-16.11,20.77-15.18,3.92.58,8.1,7.83,10.39,34.35"/><path class="cls-1" d="M343.71,25.22c2.86,24.93,12.85,43.9,26.27,46.69a16.4,16.4,0,0,0,8.72-.42c11.74-4,18.48-22.34,17.05-46.19"/><path class="cls-1" d="M338.68,118.52c4.39-.87,29.5-6.41,45.54-36.75,12.69-24,12-48.89,11.53-56.46"/><path class="cls-1" d="M207.25,116.9c37.49,0,74.61,2,112.22,1.39"/><path class="cls-1" d="M308.55,99.29q.06,36.3.1,72.59"/><path class="cls-1" d="M197.09,25.31q.57,41.86,1.16,83.73"/><path class="cls-1" d="M175.71,50.69h30.57"/><path class="cls-1" d="M166.69,49.16v3"/><path class="cls-1" d="M198.25,122.87v49"/><path class="cls-1" d="M180.61,132.31c4.86,27.23,4,35.13,1.65,35.91-3.49,1.13-8.52-13.6-17.42-13.6-9.49,0-13.7,16.76-20.05,16.12-3.94-.4-8.45-7.45-11.95-33.84"/><path class="cls-1" d="M38.41,26.37c-.44,7.4-1.16,31.74,11.53,55.2,15.59,28.83,42.85,35.63,45.54,35.92a14,14,0,0,0,4.25-.25,11.16,11.16,0,0,0,4.42-2.14,14.88,14.88,0,0,0,1.53-1.48,18.91,18.91,0,0,0,1.64-2"/><path class="cls-1" d="M118.6,107.61a.25.25,0,0,0,0-.08,13.9,13.9,0,0,0-2.86-.1l-1,.11A17,17,0,0,1,118.6,107.61Z"/><path class="cls-1" d="M148.88,29.52A215.42,215.42,0,0,1,155,55.26a158.7,158.7,0,0,1,2.63,26.58c0,3.42,0,14-4.24,24.1a18.47,18.47,0,0,1-4.56,6.61c-.69.63-5.27,4.68-11.42,3.74a12.93,12.93,0,0,1-6-2.62"/><path class="cls-1" d="M128.62,125.52a14.85,14.85,0,0,0-9.71-5,17,17,0,0,0-10.85,2.56c-5.9,3.78-8.31,11.3-5.28,16.7,4.12,7.34,15.2,5.26,19.68,12.25,4.13,6.43,1.18,18.2-8.88,20.81-7.58,2-17.83-1.61-22.79-9.3"/><path class="cls-1" d="M198.25,115.39v3"/></g></g></svg>