<?xml version="1.0" encoding="utf-8"?>
<!-- Generator: Adobe Illustrator 23.1.1, SVG Export Plug-In . SVG Version: 6.00 Build 0)  -->
<svg version="1.1" id="Warstwa_1" xmlns="http://www.w3.org/2000/svg" xmlns:xlink="http://www.w3.org/1999/xlink" x="0px" y="0px"
	 viewBox="0 0 1202 316" style="enable-background:new 0 0 1202 316;" xml:space="preserve">
<style type="text/css">
	.st0{display:none;fill:#F6F6F6;stroke:#002A3F;stroke-width:3;stroke-miterlimit:10;}
	.st1{fill:none;stroke:#002A3F;stroke-width:3;stroke-miterlimit:10;}
</style>
<rect x="0.7" y="3.8" class="st0" width="1199" height="313"/>
<g>
	<path class="st1" d="M601.8,273.2c-5.5-58.8,0.3-106.4,6.9-139.6c13.4-66.9,32.8-88.4,59.7-92c9.8-1.3,18.1,0.1,23,0.9
		c38.3,5.9,59.1,33.3,76,90.3c9.8,33,20.3,80.2,17.4,138.9"/>
	<line class="st1" x1="460.5" y1="89.1" x2="460.5" y2="176.1"/>
	<path class="st1" d="M506,107.9"/>
	<path class="st1" d="M800.8,152.9c-10.1-43.4-6.7-55.9,0-56.9c9.9-1.5,22,22.1,46.8,22.8c26.4,0.7,40.3-25.5,57.9-24
		c10.9,0.9,22.6,12.4,29,54.4"/>
	<path class="st1" d="M954.2,41c8,39.5,35.8,69.5,73.2,73.9c3.4,0.4,13.2,1.5,24.3-0.7c32.7-6.3,51.5-35.4,47.5-73.1"/>
	<path class="st1" d="M940.2,188.7c12.2-1.4,82.3-10.1,127-58.2c35.4-38,33.4-77.4,32.1-89.4"/>
	<path class="st1" d="M573.8,186.1c104.5,0.1,208,3.2,312.8,2.2"/>
	<path class="st1" d="M485.9,81.3c28.4,0,56.8,0,85.2,0"/>
	<line class="st1" x1="460.5" y1="79.1" x2="460.5" y2="84.1"/>
	<line class="st1" x1="548.5" y1="195.1" x2="548.5" y2="273.1"/>
	<path class="st1" d="M878.3,239.7"/>
	<path class="st1" d="M499.5,210.5c13.5,43.1,11.2,55.6,4.6,56.9c-9.7,1.8-23.7-21.5-48.6-21.5c-26.5,0-38.2,26.5-55.9,25.5
		c-11-0.6-23.5-11.8-33.3-53.6"/>
	<path class="st1" d="M103.1,42.8c-1.2,11.7-3.2,50.2,32.1,87.4c43.5,45.6,119.5,56.4,127,56.9c6.2,0.4,11.8-0.4,11.8-0.4
		c1.9-0.3,7.3-1,12.3-3.4c1.8-0.8,3.4-1.8,4.3-2.3c2-1.2,3.5-2.3,4.6-3.1"/>
	<path class="st1" d="M326.6,171.4c0,0,0-0.1,0-0.1c-2.4-0.2-5-0.3-8-0.1c-1,0-1.9,0.1-2.8,0.2C320.1,171,323.8,171.2,326.6,171.4z"
		/>
	<path class="st1" d="M411,47.8c8.8,16.4,14,30.4,17.2,40.8c6.2,20,7.2,33.8,7.3,42.1c0.1,5.4,0,22.1-11.8,38.1
		c-2,2.8-5.6,6.8-12.7,10.5c-1.9,1-14.7,7.4-31.8,5.9c-7.9-0.7-13.6-2.8-16.7-4.1"/>
	<path class="st1" d="M354.6,199.8c-1.4-0.9-10.3-6.8-27.1-7.8c-16-1-27.6,3.1-30.2,4.1c-16.5,6-23.2,17.9-14.7,26.4
		c11.5,11.6,42.4,8.3,54.9,19.4c11.5,10.2,3.3,28.8-24.8,32.9c-21.1,3.1-49.7-2.6-63.5-14.7"/>
	<line class="st1" x1="548.5" y1="184.1" x2="548.5" y2="188.1"/>
	<line class="st1" x1="548.4" y1="54.9" x2="548.4" y2="176.2"/>
	<line class="st1" x1="855.5" y1="150.5" x2="855.5" y2="271.8"/>
</g>
</svg>
